<svg xmlns="http://www.w3.org/2000/svg" viewBox="0 0 454.96 229.53"><defs><style>.cls-1{fill:#1d1d1b;}.cls-2{fill:#fff;}</style></defs><g id="Layer_2" data-name="Layer 2"><g id="Layer_1-2" data-name="Layer 1"><path class="cls-1" d="M454.93,72.88h0a2.3,2.3,0,0,1-.86,1.11,8.74,8.74,0,0,1-2.14,1.16c-.8.33-1.72.65-2.76,1C421.82,84.69,316,92.41,316,92.41c-42.63,6.93-88.51,7.65-88.51,7.65S181.6,99.34,139,92.41c0,0-108.2-7.9-134-16.56-.69-.23-1.31-.46-1.88-.69a6.84,6.84,0,0,1-2.8-1.85,1.14,1.14,0,0,1,0-1.46L137,5.09c.86-.42,1.72-.87,2.57-1.32,4.19-2.22,25.11-11.1,60.43,9.79,2.7,1.6,5.43,3.08,8.23,4.39,6.57,3.08,18.07,8.47,19.25,9,1.18-.54,12.68-5.93,19.25-9,2.8-1.31,5.53-2.79,8.23-4.39,35.32-20.89,56.24-12,60.43-9.79.85.45,1.71.9,2.57,1.32L454.67,71.85A1.16,1.16,0,0,1,454.93,72.88Z"/><path class="cls-2" d="M449.16,76.13a186.21,186.21,0,0,0-30.57,22.7s-50.73,37.11-98.77,52.48-69.13,8.68-92.25,5.84v0h-.18v0c-23.12,2.84-44.34,9.49-92.25-5.84S36.37,98.83,36.37,98.83a176.72,176.72,0,0,0-31.45-23C30.77,84.51,139,92.41,139,92.41c42.63,6.93,88.51,7.65,88.51,7.65s45.88-.72,88.51-7.65C316,92.41,421.82,84.69,449.16,76.13Z"/><path class="cls-1" d="M454.92,72.89,454.06,74l-64.73,83.27c-34.17,42.63-61.62,56.26-61.62,56.26-33.56,20.76-72.39,15.37-72.39,15.37l-27.84-.14-27.84.14s-38.83,5.39-72.39-15.37c0,0-27.45-13.63-61.62-56.26L.16,73.27s0,0,.08,0c.39.19,2.08,1.06,4.68,2.54a176.72,176.72,0,0,1,31.45,23s50.73,37.11,98.77,52.48,69.13,8.68,92.25,5.84v0h.18v0c23.12,2.84,44.34,9.49,92.25-5.84s98.77-52.48,98.77-52.48a186.21,186.21,0,0,1,30.57-22.7C452.58,74.1,454.73,73,454.92,72.89Z"/><rect class="cls-1" x="78.72" y="130.61" width="293.73" height="3"/></g></g></svg>