<svg xmlns="http://www.w3.org/2000/svg" viewBox="0 0 120 120">
  <defs>
    <style>.cls-1{fill:#999;}.cls-2{fill:#fff;}.cls-3{fill:gray;}</style>
  </defs>
  <path class="cls-1" d="M92.6,67c-9,3-19.15,5.54-32.6,5-13.45.53-23.55-2-32.6-5A20.51,20.51,0,0,1,41.94,61.4C54.33,61.4,60,65.86,60,65.86s5.67-4.46,18.06-4.46A20.51,20.51,0,0,1,92.6,67Z"/>
  <path d="M117.28,59.8a39.57,39.57,0,0,0-10.46,1.11c-4.67,1.39-9.29,4.44-14.22,6A20.51,20.51,0,0,0,78.06,61.4C65.67,61.4,60,65.86,60,65.86S54.33,61.4,41.94,61.4A20.51,20.51,0,0,0,27.4,67c-4.93-1.61-9.55-4.66-14.22-6A39.44,39.44,0,0,0,2.68,59.8c7.74-.34,22.73-6.93,31.78-11.22a33.57,33.57,0,0,1,16.71-3l8.83.64,8.83-.64a33.57,33.57,0,0,1,16.71,3C94.57,52.86,109.53,59.45,117.28,59.8Z"/>
  <path class="cls-2" d="M60.4,41.29S60,42.61,60,47.2c0,2.38,0,4.36,0,5.72a1.89,1.89,0,0,0,1.74,2h8.51a2.54,2.54,0,0,0,2.37-2.58c.16-3.26.74-8.74-1.28-11.06"/>
  <path class="cls-2" d="M81.88,51.19a2.35,2.35,0,0,1-2.09,2.24L75,53.71a1.86,1.86,0,0,1-1.83-2V48.59c0-2.29.36-5.38.36-5.38l8,1.88A22.26,22.26,0,0,1,81.88,51.19Z"/>
  <path class="cls-2" d="M92.6,37.53S90.72,54,86.37,52.77s-4.41-6-4.41-6v-6"/>
  <path class="cls-2" d="M59.19,41.29s.46,1.32.41,5.91c0,2.38,0,4.36,0,5.72a1.89,1.89,0,0,1-1.74,2H49.33A2.55,2.55,0,0,1,47,52.35c-.15-3.26-.73-8.74,1.28-11.06"/>
  <path class="cls-2" d="M37.72,51.19a2.35,2.35,0,0,0,2.08,2.24l4.85.28a1.87,1.87,0,0,0,1.83-2c0-1,0-2.1,0-3.13,0-2.29-.36-5.38-.36-5.38l-8,1.88A22.26,22.26,0,0,0,37.72,51.19Z"/>
  <path class="cls-2" d="M27,37.53S28.88,54,33.23,52.77s4.41-6,4.41-6v-6"/>
  <path class="cls-3" d="M117.32,59.8h0c-7.75-.35-22.71-6.81-31.74-11.1a33.57,33.57,0,0,0-16.71-3L60,46.35l-8.83-.65a33.57,33.57,0,0,0-16.71,3c-9,4.29-24,10.76-31.78,11.1,26.25-15,22.89-29,36.11-32.76S60,30.34,60,30.34s8-7.1,21.21-3.3S91.07,44.79,117.32,59.8Z"/>
  <path class="cls-2" d="M59.19,80.61s.46-1.32.41-5.92c0-2.37,0-4.36,0-5.72a1.88,1.88,0,0,0-1.74-2H49.33A2.54,2.54,0,0,0,47,69.54c-.15,3.27-.73,8.75,1.28,11.07"/>
  <path class="cls-2" d="M37.72,69.88a2.35,2.35,0,0,1,2.08-2.24l4.85-.28a1.87,1.87,0,0,1,1.83,2c0,1,0,2.1,0,3.13,0,2.29-.36,5.38-.36,5.38l-8-1.88A22.26,22.26,0,0,1,37.72,69.88Z"/>
  <path class="cls-2" d="M28.37,82.88s1.87-16.43,6.23-15.24,4.41,6,4.41,6v6"/>
  <path class="cls-2" d="M60.4,80.61S60,79.29,60,74.69c0-2.37,0-4.36,0-5.72a1.88,1.88,0,0,1,1.74-2h8.51a2.53,2.53,0,0,1,2.37,2.57c.16,3.27.74,8.75-1.28,11.07"/>
  <path class="cls-2" d="M81.88,69.88a2.35,2.35,0,0,0-2.09-2.24L75,67.36a1.86,1.86,0,0,0-1.83,2v3.13c0,2.29.36,5.38.36,5.38l8-1.88A22.26,22.26,0,0,0,81.88,69.88Z"/>
  <path class="cls-2" d="M91.25,82.88S89.37,66.45,85,67.64s-4.41,6-4.41,6v6"/>
  <path class="cls-3" d="M117.32,59.8,92.91,82.61c-7.37,6.51-17.67,10.53-28.73,11.21L60,94.08l-4.18-.26c-11.06-.68-21.36-4.7-28.73-11.21L2.68,59.8a39.44,39.44,0,0,1,10.5,1.11c4.67,1.39,9.29,4.44,14.22,6,9.05,3,19.15,5.54,32.6,5,13.45.53,23.55-2,32.6-5,4.93-1.61,9.55-4.66,14.22-6a39.57,39.57,0,0,1,10.46-1.11Z"/>
</svg>
